<?xml version="1.0" encoding="UTF-8" standalone="no"?>
<!-- Created with Inkscape (http://www.inkscape.org/) -->

<svg
   xmlns:dc="http://purl.org/dc/elements/1.1/"
   xmlns:cc="http://creativecommons.org/ns#"
   xmlns:rdf="http://www.w3.org/1999/02/22-rdf-syntax-ns#"
   xmlns:svg="http://www.w3.org/2000/svg"
   xmlns="http://www.w3.org/2000/svg"
   xmlns:sodipodi="http://sodipodi.sourceforge.net/DTD/sodipodi-0.dtd"
   xmlns:inkscape="http://www.inkscape.org/namespaces/inkscape"
   width="744.09448819"
   height="1052.3622047"
   id="svg2"
   version="1.1"
   inkscape:version="0.48.5 r10040"
   sodipodi:docname="drawing.svg">
  <defs
     id="defs4" />
  <sodipodi:namedview
     id="base"
     pagecolor="#ffffff"
     bordercolor="#666666"
     borderopacity="1.0"
     inkscape:pageopacity="0.0"
     inkscape:pageshadow="2"
     inkscape:zoom="0.24748737"
     inkscape:cx="-1398.9845"
     inkscape:cy="397.13919"
     inkscape:document-units="px"
     inkscape:current-layer="layer1"
     showgrid="false"
     showguides="true"
     inkscape:guide-bbox="true"
     inkscape:window-width="1895"
     inkscape:window-height="1035"
     inkscape:window-x="25"
     inkscape:window-y="0"
     inkscape:window-maximized="1" />
  <metadata
     id="metadata7">
    <rdf:RDF>
      <cc:Work
         rdf:about="">
        <dc:format>image/svg+xml</dc:format>
        <dc:type
           rdf:resource="http://purl.org/dc/dcmitype/StillImage" />
        <dc:title></dc:title>
      </cc:Work>
    </rdf:RDF>
  </metadata>
  <g
     inkscape:label="Layer 1"
     inkscape:groupmode="layer"
     id="layer1">
    <g
       id="g3789"
       inkscape:export-filename="/exec/vscode-extension-samples/previewhtml-sample/icon/icon.png"
       inkscape:export-xdpi="20.950001"
       inkscape:export-ydpi="20.950001">
      <g
         transform="translate(-731.35045,561.64482)"
         id="g3780">
        <rect
           style="fill:none;stroke:#8ae234;stroke-width:0.96990019;stroke-linejoin:round;stroke-miterlimit:4;stroke-opacity:1;stroke-dasharray:none;stroke-dashoffset:0"
           id="rect2998"
           width="1099.0302"
           height="1099.0302"
           x="-2723.3862"
           y="-450.71393" />
        <g
           id="g4910"
           transform="matrix(0.74558075,0,0,0.74558075,-2279.6065,-408.84319)">
          <path
             style="fill:#2887ce;fill-opacity:1;stroke:#004a7c;stroke-width:86.58200073;stroke-miterlimit:4;stroke-opacity:1;stroke-dasharray:none"
             inkscape:connector-curvature="0"
             d="M 647.65446,325.80283 197.656,66.966918 c -15.053,-8.66746 -34.88078,-13.423057 -55.83993,-13.423057 -20.97832,0 -40.80611,4.774777 -55.820758,13.423057 L -364.06069,325.80283 c -30.77716,17.68009 -55.82076,60.84481 -55.82076,96.22416 v 517.55477 c 0,35.41773 25.0436,78.62084 55.80158,96.33934 l 450.094362,258.8732 c 15.033818,8.6291 34.842428,13.4039 55.782408,13.4039 20.92079,0 40.74857,-4.7748 55.8591,-13.4039 l 450.01766,-258.8732 c 30.7772,-17.776 55.8399,-60.97911 55.8399,-96.33934 V 422.02699 c 0,-35.34099 -25.0819,-78.5249 -55.8591,-96.22416 z"
             id="path3008" />
          <path
             style="fill:#004a7c;fill-opacity:1"
             inkscape:connector-curvature="0"
             d="m 186.45765,814.7956 h 44.64148 v -44.64165 c 0,-23.97182 33.07938,-72.00654 44.64154,-89.28245 -11.56216,-17.36613 -44.64154,-65.48935 -44.64154,-89.28331 V 546.94654 H 186.45765 V 413.02243 h 44.64148 c 87.89919,0.93699 133.92461,57.00713 133.92461,133.92411 v 44.64165 l 44.64153,44.64165 v 89.28331 l -44.64153,44.6408 v 44.64165 c 0,76.29233 -46.02542,132.98713 -133.92461,133.92496 H 186.45765 V 814.7956 z"
             id="path4892" />
          <path
             style="fill:#004a7c;fill-opacity:1"
             inkscape:connector-curvature="0"
             d="M 97.17451,814.7956 H 52.533027 v -44.64165 c 0,-23.97182 -33.079383,-72.00654 -44.6415674,-89.28245 C 19.453644,663.50537 52.533027,615.38215 52.533027,591.58819 V 546.94654 H 97.17451 V 413.02243 H 52.533027 c -87.899189,0.93699 -133.924618,57.00713 -133.924618,133.92411 v 44.64165 l -44.641569,44.64165 v 89.28331 l 44.641569,44.6408 v 44.64165 c 0,76.29233 58.792928,132.98713 146.692032,133.92496 H 97.17451 V 814.7956 z"
             id="path4894" />
          <path
             style="fill:#ffffff"
             inkscape:connector-curvature="0"
             d="m 275.74067,814.7956 v -44.64165 c 0,-37.23088 22.1422,-77.58674 44.64153,-89.28245 -22.49933,-12.05315 -44.64153,-52.14179 -44.64153,-89.28331 v -44.64165 c 0,-37.49896 -26.0707,-44.64165 -44.64154,-44.64165 v -44.64166 c 92.98832,0 89.28307,52.05243 89.28307,89.28331 v 44.64165 c 0,43.25788 31.383,43.74892 44.64154,44.64165 v 89.28331 c -14.37458,0.89273 -44.64154,2.36586 -44.64154,44.6408 v 44.64165 c 0,37.23173 3.70525,89.28331 -89.28307,89.28331 v -44.64165 c 37.1864,0 44.64154,-44.64166 44.64154,-44.64166 z"
             id="path4896" />
          <path
             style="fill:#ffffff"
             inkscape:connector-curvature="0"
             d="m 7.8914596,814.7956 v -44.64165 c 0,-37.23088 -22.1421946,-77.58674 -44.6414826,-89.28245 22.499288,-12.05315 44.6414826,-52.14179 44.6414826,-89.28331 v -44.64165 c 0,-37.49896 26.0706364,-44.64165 44.6415674,-44.64165 v -44.64166 c -92.988351,0 -89.28305,52.05243 -89.28305,89.28331 v 44.64165 c 0,43.25788 -31.383024,43.74892 -44.641568,44.64165 v 89.28331 c 14.374585,0.89273 44.641568,2.36586 44.641568,44.6408 v 44.64165 c 0,37.23173 -3.705301,89.28331 89.28305,89.28331 v -44.64165 c -37.186456,0 -44.6415674,-44.64166 -44.6415674,-44.64166 z"
             id="path4898" />
        </g>
      </g>
    </g>
    <rect
       style="fill:#8ae234;fill-opacity:0;stroke:#8ae234;stroke-width:1;stroke-linejoin:round;stroke-miterlimit:4;stroke-opacity:1;stroke-dasharray:none;stroke-dashoffset:0"
       id="rect4919"
       width="836.40631"
       height="949.5434"
       x="901.05609"
       y="482.63617" />
    <rect
       style="fill:#edd400;fill-opacity:0;stroke:#8ae234;stroke-width:1;stroke-linejoin:round;stroke-miterlimit:4;stroke-opacity:1;stroke-dasharray:none;stroke-dashoffset:0;"
       id="rect4959"
       width="1159.6552"
       height="1309.1577"
       x="-1196.0206"
       y="-378.01382" />
  </g>
</svg>
